<svg width="32" height="32" viewBox="0 0 32 32" fill="none" xmlns="http://www.w3.org/2000/svg">
<path fill-rule="evenodd" clip-rule="evenodd" d="M9.33333 3.99998C9.33333 2.52722 10.5272 1.33331 12 1.33331H20C21.4728 1.33331 22.6667 2.52722 22.6667 3.99998H24C25.0609 3.99998 26.0783 4.42141 26.8284 5.17155C27.5786 5.9217 28 6.93911 28 7.99998V26.6666C28 27.7275 27.5786 28.7449 26.8284 29.4951C26.0783 30.2452 25.0609 30.6666 24 30.6666H8C6.93913 30.6666 5.92172 30.2452 5.17157 29.4951C4.42143 28.7449 4 27.7275 4 26.6666V7.99998C4 6.93911 4.42143 5.9217 5.17157 5.17155C5.92172 4.42141 6.93913 3.99998 8 3.99998H9.33333ZM9.33333 6.66665H8C7.64638 6.66665 7.30724 6.80712 7.05719 7.05717C6.80714 7.30722 6.66667 7.64636 6.66667 7.99998V26.6666C6.66667 27.0203 6.80714 27.3594 7.05719 27.6095C7.30724 27.8595 7.64638 28 8 28H24C24.3536 28 24.6928 27.8595 24.9428 27.6095C25.1929 27.3594 25.3333 27.0203 25.3333 26.6666V7.99998C25.3333 7.64636 25.1929 7.30722 24.9428 7.05717C24.6928 6.80712 24.3536 6.66665 24 6.66665H22.6667C22.6667 8.13941 21.4728 9.33331 20 9.33331H12C10.5272 9.33331 9.33333 8.13941 9.33333 6.66665ZM20 6.66665H12V3.99998H20V6.66665ZM9.33333 14.6666C9.33333 13.9303 9.93029 13.3333 10.6667 13.3333H10.68C11.4164 13.3333 12.0133 13.9303 12.0133 14.6666C12.0133 15.403 11.4164 16 10.68 16H10.6667C9.93029 16 9.33333 15.403 9.33333 14.6666ZM14.6667 14.6666C14.6667 13.9303 15.2636 13.3333 16 13.3333H21.3333C22.0697 13.3333 22.6667 13.9303 22.6667 14.6666C22.6667 15.403 22.0697 16 21.3333 16H16C15.2636 16 14.6667 15.403 14.6667 14.6666ZM9.33333 21.3333C9.33333 20.5969 9.93029 20 10.6667 20H10.68C11.4164 20 12.0133 20.5969 12.0133 21.3333C12.0133 22.0697 11.4164 22.6666 10.68 22.6666H10.6667C9.93029 22.6666 9.33333 22.0697 9.33333 21.3333ZM14.6667 21.3333C14.6667 20.5969 15.2636 20 16 20H21.3333C22.0697 20 22.6667 20.5969 22.6667 21.3333C22.6667 22.0697 22.0697 22.6666 21.3333 22.6666H16C15.2636 22.6666 14.6667 22.0697 14.6667 21.3333Z" fill="black"/>
</svg>
